<?xml version="1.0" standalone="no"?>
<!DOCTYPE svg PUBLIC "-//W3C//DTD SVG 20010904//EN"
 "http://www.w3.org/TR/2001/REC-SVG-20010904/DTD/svg10.dtd">
<svg version="1.0" xmlns="http://www.w3.org/2000/svg"
 width="320.000000pt" height="92.000000pt" viewBox="0 0 320.000000 92.000000"
 preserveAspectRatio="xMidYMid meet">

<g transform="translate(0.000000,92.000000) scale(0.100000,-0.100000)"
fill="#000000" stroke="none">
<path d="M0 566 l0 -355 199 -3 c182 -3 201 -5 221 -23 12 -11 26 -29 31 -40
l8 -20 0 20 c0 11 -8 39 -18 62 -30 65 -55 73 -226 73 l-145 0 0 285 0 285
143 0 c237 0 247 -8 247 -185 0 -111 1 -115 19 -105 11 5 29 10 40 10 20 0 21
6 21 104 0 94 2 108 23 131 30 35 78 44 235 45 l132 0 0 -318 c0 -310 -1 -319
-22 -362 -39 -76 -138 -111 -211 -74 -62 32 -107 114 -75 138 34 27 48 61 48
123 0 49 -3 63 -15 63 -11 0 -15 12 -15 44 0 28 -5 46 -14 49 -21 8 -36 -14
-36 -55 0 -34 -3 -38 -25 -38 -23 0 -25 4 -25 44 0 28 -5 46 -14 49 -21 8 -36
-14 -36 -55 0 -27 -4 -38 -15 -38 -12 0 -15 -13 -15 -55 0 -60 19 -108 49
-124 11 -6 21 -26 25 -49 9 -61 64 -132 127 -165 46 -25 62 -28 110 -24 69 6
121 29 165 75 60 62 64 93 64 489 l0 353 -182 0 c-195 0 -242 -7 -285 -44
l-27 -23 -44 31 -44 31 -209 3 -209 3 0 -355z"/>
<path d="M170 715 l0 -35 100 0 100 0 0 35 0 35 -100 0 -100 0 0 -35z"/>
<path d="M630 715 l0 -35 100 0 100 0 0 35 0 35 -100 0 -100 0 0 -35z"/>
<path d="M1200 615 c0 -88 1 -95 20 -95 14 0 20 7 20 24 0 18 7 26 28 31 38 9
62 34 62 64 0 46 -34 71 -94 71 l-36 0 0 -95z m84 39 c7 -19 -10 -44 -30 -44
-9 0 -14 11 -14 30 0 23 5 30 19 30 10 0 22 -7 25 -16z"/>
<path d="M1360 615 l0 -95 55 0 c42 0 55 3 55 15 0 10 -11 15 -35 15 -31 0
-35 3 -35 25 0 20 5 25 25 25 31 0 34 27 3 32 -13 2 -24 11 -26 21 -3 13 3 17
26 17 25 0 42 14 42 36 0 2 -25 4 -55 4 l-55 0 0 -95z"/>
<path d="M1500 615 c0 -87 2 -95 19 -95 16 0 20 8 23 43 l3 42 24 -42 c18 -32
31 -43 49 -43 l24 0 -22 35 c-20 32 -20 36 -6 57 22 31 20 45 -9 73 -18 18
-35 25 -65 25 l-40 0 0 -95z m75 25 c0 -16 -6 -26 -17 -28 -14 -3 -18 3 -18
28 0 25 4 31 18 28 11 -2 17 -12 17 -28z"/>
<path d="M1682 694 c-40 -28 -26 -70 32 -99 36 -18 26 -40 -16 -39 -30 1 -38
-2 -38 -17 0 -24 51 -34 87 -17 22 10 29 21 31 50 3 34 0 38 -38 58 -33 17
-39 24 -30 35 6 7 20 11 31 8 12 -4 25 0 29 8 19 29 -50 40 -88 13z"/>
<path d="M1836 689 c-22 -17 -26 -28 -26 -74 0 -68 23 -99 73 -99 65 0 98 57
77 134 -16 58 -75 77 -124 39z m80 -43 c15 -61 -16 -115 -50 -87 -19 16 -21
82 -4 99 20 20 47 14 54 -12z"/>
<path d="M1990 695 c-9 -10 -9 -15 -1 -15 7 0 11 -28 11 -80 0 -73 2 -80 19
-80 17 0 20 8 23 53 l3 52 32 -52 c22 -36 39 -53 53 -53 20 0 21 5 18 92 -3
79 -6 93 -20 96 -15 3 -18 -4 -18 -47 0 -28 -3 -51 -7 -51 -5 0 -21 23 -36 50
-29 52 -54 63 -77 35z"/>
<path d="M2219 698 c-1 -7 -1 -20 0 -28 1 -9 -8 -42 -19 -74 -11 -33 -20 -63
-20 -68 0 -14 38 -9 44 7 3 9 18 15 36 15 20 0 30 -5 30 -15 0 -9 9 -15 25
-15 14 0 25 1 25 3 0 1 -13 43 -29 92 -28 86 -31 90 -60 93 -20 2 -31 -1 -32
-10z m51 -90 c0 -10 -7 -18 -15 -18 -17 0 -18 4 -8 38 4 18 8 20 14 10 5 -7 9
-21 9 -30z"/>
<path d="M2370 616 l0 -96 55 0 55 0 0 35 c0 26 -4 33 -14 29 -8 -3 -17 -12
-20 -20 -3 -8 -12 -14 -20 -14 -12 0 -16 17 -18 77 -3 65 -6 78 -20 81 -16 3
-18 -6 -18 -92z"/>
<path d="M2580 616 c0 -57 4 -97 11 -101 6 -4 31 -4 55 0 56 8 75 38 54 83
-15 29 -15 29 -5 54 11 27 -29 58 -75 58 l-40 0 0 -94z m70 49 c14 -16 6 -35
-16 -35 -8 0 -14 10 -14 25 0 28 12 32 30 10z m10 -80 c15 -18 5 -35 -21 -35
-14 0 -19 7 -19 25 0 28 21 33 40 10z"/>
<path d="M2740 615 l0 -95 55 0 c54 0 55 0 55 30 0 33 -14 39 -28 13 -6 -10
-16 -14 -26 -10 -13 5 -16 21 -16 82 0 68 -2 75 -20 75 -19 0 -20 -7 -20 -95z"/>
<path d="M2895 685 c-19 -19 -25 -35 -25 -70 0 -26 5 -55 11 -66 27 -52 119
-43 138 13 15 42 14 74 -4 107 -24 48 -81 56 -120 16z m80 -75 c0 -46 -3 -55
-19 -58 -38 -8 -59 54 -35 99 6 13 18 19 32 17 20 -3 22 -9 22 -58z"/>
<path d="M3083 686 c-24 -21 -28 -32 -28 -74 0 -34 6 -56 18 -70 21 -23 68
-35 103 -26 23 6 25 11 22 53 -3 49 -24 65 -54 40 -14 -11 -14 -13 0 -21 22
-12 20 -38 -2 -38 -28 0 -42 20 -42 60 0 43 14 60 51 60 30 0 46 25 23 34 -31
12 -64 5 -91 -18z"/>
<path d="M170 555 l0 -35 100 0 100 0 0 35 0 35 -100 0 -100 0 0 -35z"/>
<path d="M630 584 c0 -3 14 -19 31 -35 28 -26 38 -29 100 -29 l69 0 0 35 0 35
-100 0 c-55 0 -100 -3 -100 -6z"/>
<path d="M170 400 l0 -40 100 0 100 0 0 40 0 40 -100 0 -100 0 0 -40z"/>
<path d="M720 400 l0 -40 55 0 55 0 0 40 0 40 -55 0 -55 0 0 -40z"/>
<path d="M1200 310 c0 -55 4 -100 9 -100 5 0 11 12 13 28 3 24 7 27 45 30 113
8 91 142 -23 142 l-44 0 0 -100z m109 48 c16 -43 -5 -68 -56 -68 -32 0 -33 1
-33 45 l0 45 40 0 c33 0 42 -4 49 -22z"/>
<path d="M1380 310 c0 -55 4 -100 9 -100 5 0 11 12 13 27 5 42 36 42 69 2 30
-37 51 -35 26 2 -15 20 -14 24 3 47 47 58 7 122 -76 122 l-44 0 0 -100z m108
53 c27 -37 0 -73 -54 -73 -33 0 -34 1 -34 43 0 24 3 47 7 51 12 12 67 -3 81
-21z"/>
<path d="M1599 348 c-15 -35 -34 -80 -43 -100 -14 -32 -14 -38 -2 -38 8 0 18
9 21 20 9 29 90 29 105 0 14 -27 33 -26 25 1 -4 12 -24 57 -44 100 l-36 79
-26 -62z m46 -34 c19 -46 20 -44 -15 -44 -16 0 -30 4 -30 9 0 12 21 71 26 71
2 0 11 -16 19 -36z"/>
<path d="M1744 397 c-3 -8 -4 -52 -2 -98 l3 -84 51 0 c29 1 59 7 68 14 20 17
21 74 1 91 -9 7 -12 22 -9 40 5 22 1 31 -14 39 -29 15 -92 14 -98 -2z m85 -16
c23 -15 5 -41 -29 -41 -25 0 -30 4 -30 25 0 19 5 25 23 25 12 0 28 -4 36 -9z
m21 -75 c6 -8 10 -25 8 -38 -2 -19 -10 -23 -45 -26 l-43 -3 0 40 c0 40 1 41
34 41 18 0 39 -7 46 -14z"/>
<path d="M1925 398 c-10 -24 -1 -178 10 -178 13 0 19 170 6 183 -7 7 -12 5
-16 -5z"/>
<path d="M1993 317 c2 -109 19 -132 27 -36 l5 62 63 -67 62 -67 0 101 c0 60
-4 100 -10 100 -6 0 -10 -28 -10 -65 0 -36 -3 -65 -6 -65 -3 0 -35 30 -70 68
l-64 67 3 -98z"/>
<path d="M693 245 l-22 -35 99 0 100 0 0 35 0 35 -77 0 c-78 -1 -78 -1 -100
-35z"/>
</g>
</svg>
